<?xml version="1.0" encoding="utf-8"?>
<!-- Generator: Adobe Illustrator 19.0.0, SVG Export Plug-In . SVG Version: 6.00 Build 0)  -->
<svg version="1.1" id="Layer_2" xmlns="http://www.w3.org/2000/svg" xmlns:xlink="http://www.w3.org/1999/xlink" x="0px" y="0px"
	 viewBox="0 0 664 311.002" enable-background="new 0 0 664 311.002" xml:space="preserve">
<g>
	<path fill="#FFFFFF" d="M624.646,219.773c0.037-0.029,0.064-0.052,0.104-0.084c-3.637-4.385-5.981-9.92-7.004-15.502
		c-1.15-6.264-0.65-12.855-0.535-19.189c0.238-13.136,0.092-26.275,0.055-39.412c-0.076-26.54-0.152-53.081-0.227-79.622
		c-0.008-2.289-0.012-4.578-0.02-6.867c-1.717-1.156-11.783-7.386-13.81-8.598c-0.516,26.492-1.027,52.984-1.541,79.477
		c-0.035,1.705-0.066,3.41-0.1,5.115c-8.016-8.486-19.928-13.814-31.518-14.565c-11.232-0.728-22.82,1.707-32.41,7.721
		c-20.147,12.632-31.629,36.886-26.703,61.315C516.168,215.5,536.168,230,563.115,230c15.061,0,29.934-9.739,39.526-21.404
		c2.983,14.387,10.931,20.201,10.931,20.201l11.178-9.107C624.75,219.689,624.706,219.725,624.646,219.773z M593.863,195.026
		c-12.33,17.907-35.996,23.013-52.853,11.405c-16.858-11.609-20.529-35.537-8.199-53.444c12.326-17.907,35.992-23.013,52.85-11.405
		C602.519,153.191,606.193,177.119,593.863,195.026z M624.004,220.293c-0.154,0.125-0.306,0.248-0.435,0.352
		C623.678,220.557,623.826,220.438,624.004,220.293z M623.424,220.764c-0.057,0.045-0.1,0.08-0.128,0.104
		C623.322,220.846,623.365,220.811,623.424,220.764z"/>
	<path fill="#FFFFFF" d="M482.504,121.223c0,0-40.379,1.402-75.748,29.898c0.037-3.154,0.193-19.118,0.193-19.118l-15.82,11.115
		c0,0,0.738,55.157,0.91,67.912C392.098,215.504,392,229,392,229h13.723c0,0,1.33-55.467,3.344-57.973
		C434,140,482.018,134.115,482.018,134.115L482.504,121.223z"/>
	<path fill="#FFFFFF" d="M152.418,169.597c-0.549-14.522-6.726-27.728-17.392-37.061c-8.796-7.698-19.717-12.074-31.587-12.574
		c-16.104-0.68-31.626,5.738-42.965,17.71l-0.77-78.495l-13.741-8.214l-1.106,121.73c-1.163,15.995,4.637,32.93,17.231,43.951
		C70.885,224.342,81.801,230,93.67,230h0.004c16.865,1,33.113-7.214,44.564-20.299C147.92,198.638,152.961,183.94,152.418,169.597z
		 M128.863,194.668c-12.33,17.907-35.996,23.014-52.853,11.405c-16.858-11.608-20.529-35.536-8.199-53.444
		c12.326-17.907,35.992-23.012,52.85-11.404C137.52,152.834,141.193,176.762,128.863,194.668z"/>
	<polygon fill="#65D6C3" points="276.261,196.5 345,149.498 341,217.75 274.004,270.227 	"/>
	<polyline fill="#FFFFFF" points="264.623,277.436 266.65,192.346 344.254,140.347 330.293,134.141 257.912,177.351 
		185.836,134.293 172.248,140.712 249.115,192.207 251.352,276.949 258.252,282.568 	"/>
</g>
</svg>
